<svg width="49" height="48" viewBox="0 0 49 48" fill="none" xmlns="http://www.w3.org/2000/svg">
<circle cx="24.2348" cy="24.0164" r="23.9422" fill="#F5F5F5"/>
<g clip-path="url(#clip0_302_2055)">
<path d="M33.0865 16.2377C32.5959 16.0941 20.5941 14.8992 16.3792 20.5937C14.5124 23.1163 14.4844 26.5745 16.2856 30.8713C15.8287 31.8197 15.4287 32.8187 15.1027 33.8728C15.0036 34.1931 15.1829 34.5328 15.5028 34.6315C15.5625 34.6501 15.6229 34.6588 15.6826 34.6588C15.9412 34.6588 16.1814 34.4917 16.2615 34.2315C19.4741 23.8453 29.9141 18.8206 33.1156 17.5512C33.4272 17.4276 33.8436 16.4593 33.0865 16.2377Z" fill="#84829A"/>
<path d="M18.2123 32.1714C19.95 32.9004 21.6874 33.274 23.3031 33.274C24.7553 33.274 26.1096 32.9754 27.2767 32.3699C29.6254 31.1515 31.0607 28.8209 31.4272 25.6293C31.8006 22.3765 32.2655 20.3392 32.6533 19.0928C29.2013 20.6851 21.7994 24.8127 18.2123 32.1714Z" fill="#84829A"/>
</g>
<defs>
<clipPath id="clip0_302_2055">
<rect width="18.6217" height="18.6217" fill="white" transform="translate(14.9242 16.0361)"/>
</clipPath>
</defs>
</svg>
