<svg width="48" height="48" viewBox="0 0 48 48" fill="none" xmlns="http://www.w3.org/2000/svg">
<circle cx="24.0619" cy="24.0164" r="23.9422" fill="#F5F5F5"/>
<g clip-path="url(#clip0_302_2069)">
<path d="M31.3789 14.7061C31.2756 14.706 31.1737 14.73 31.0813 14.7762L26.0416 17.2968L20.3428 14.7636C20.3335 14.7596 20.3228 14.7589 20.3128 14.7549C20.2872 14.7453 20.261 14.7373 20.2344 14.731C20.2079 14.7239 20.181 14.7183 20.1539 14.7144C20.0999 14.7099 20.0456 14.7099 19.9916 14.7144C19.9645 14.7183 19.9376 14.7239 19.9112 14.731C19.8845 14.7373 19.8583 14.7453 19.8327 14.7549C19.8227 14.7589 19.8121 14.7596 19.8028 14.7636L13.8173 17.4238C13.577 17.5305 13.4222 17.7687 13.4222 18.0316V32.6627C13.4224 32.8877 13.5362 33.0974 13.7248 33.22C13.9135 33.3429 14.1515 33.3619 14.3573 33.2706L20.0727 30.7301L25.7882 33.2706C25.7981 33.2746 25.8088 33.2706 25.8188 33.2766C25.9798 33.3486 26.1646 33.3445 26.3222 33.2653C26.3328 33.2607 26.3448 33.2653 26.3554 33.258L31.6758 30.5977C31.9013 30.4851 32.0437 30.2546 32.0436 30.0025V15.3714C32.0438 15.0041 31.7462 14.7062 31.3789 14.7061ZM19.4077 29.5702L14.7523 31.6392V18.4639L19.4077 16.3949V29.5702ZM25.3932 31.6392L20.7378 29.5702V16.3949L25.3932 18.4639V31.6392ZM30.7135 29.5915L26.7232 31.5867V18.4426L30.7135 16.4474V29.5915Z" fill="#84829A"/>
</g>
<defs>
<clipPath id="clip0_302_2069">
<rect width="18.6217" height="18.6217" fill="white" transform="translate(13.4208 14.7041)"/>
</clipPath>
</defs>
</svg>
