<svg width="22" height="23" viewBox="0 0 22 23" fill="none" xmlns="http://www.w3.org/2000/svg">
<path d="M21.7464 1.70917L12.6018 21.661C12.5253 21.8281 12.3955 21.9652 12.2328 22.0507C12.0702 22.1363 11.8837 22.1655 11.7026 22.1338C11.5216 22.1021 11.3561 22.0113 11.2322 21.8756C11.1082 21.7399 11.0327 21.5669 11.0175 21.3838L10.2443 12.1089L0.969473 11.3358C0.786293 11.3205 0.613321 11.245 0.477609 11.1211C0.341897 10.9971 0.251099 10.8316 0.219415 10.6506C0.187731 10.4695 0.216947 10.2831 0.302495 10.1204C0.388043 9.95769 0.525099 9.82794 0.692226 9.75142L20.6441 0.606834C20.7983 0.536147 20.9705 0.514347 21.1375 0.544362C21.3045 0.574376 21.4583 0.654767 21.5782 0.77474C21.6982 0.894713 21.7786 1.04852 21.8086 1.21551C21.8386 1.3825 21.8168 1.55468 21.7461 1.70892L21.7464 1.70917Z" fill="#080809"/>
</svg>
