<svg width="49" height="48" viewBox="0 0 49 48" fill="none" xmlns="http://www.w3.org/2000/svg">
<circle cx="24.2375" cy="24.0164" r="23.9422" fill="#F5F5F5"/>
<path d="M31.3452 17.6883L22.9421 26.1224C22.8458 26.0666 22.7445 26.0199 22.6395 25.9828L17.0918 24.1051C16.924 24.063 16.7751 23.9661 16.6687 23.8298C16.5623 23.6934 16.5045 23.5254 16.5045 23.3524C16.5045 23.1795 16.5623 23.0115 16.6687 22.8751C16.7751 22.7388 16.924 22.6419 17.0918 22.5998L30.8563 17.7039C30.9463 17.6733 31.0406 17.6576 31.1357 17.6573C31.2067 17.6562 31.2775 17.6667 31.3452 17.6883Z" fill="#84829A"/>
<path d="M31.8804 18.7291L26.9844 32.5091C26.9304 32.6697 26.8254 32.8082 26.6853 32.9035C26.5451 32.9988 26.3777 33.0456 26.2085 33.0367C26.0374 33.0446 25.8684 32.9955 25.7281 32.8973C25.5877 32.799 25.4838 32.6571 25.4326 32.4936L23.586 26.9459C23.5489 26.8409 23.5021 26.7396 23.4463 26.6433L31.8959 18.2402C31.9435 18.4006 31.9381 18.572 31.8804 18.7291Z" fill="#84829A"/>
</svg>
