<svg width="63" height="65" viewBox="0 0 63 65" fill="none" xmlns="http://www.w3.org/2000/svg">
<rect x="0.40271" y="0.240234" width="62.5157" height="63.8458" rx="17.2916" fill="#F0BB1F"/>
<path d="M18.4188 23.4852C18.0243 23.4852 17.7016 23.1624 17.6944 22.768V18.2566C17.6944 17.855 18.0172 17.5322 18.4188 17.5322H22.9301C23.3246 17.5322 23.6474 17.855 23.6474 18.2566V19.8273H41.0041V18.2566C41.0041 17.8621 41.3269 17.5394 41.7214 17.5322H46.2327C46.6272 17.5322 46.9499 17.855 46.9571 18.2566V22.768C46.9571 23.1624 46.6343 23.4852 46.2327 23.4852H44.662V40.842H46.2327C46.6272 40.842 46.9499 41.1647 46.9571 41.5592V46.0705C46.9571 46.465 46.6343 46.7877 46.2327 46.7949H41.7214C41.3269 46.7949 41.0041 46.4721 41.0041 46.0705V44.4998H23.6474V46.0705C23.6474 46.465 23.3246 46.7877 22.9301 46.7949H18.4188C18.0243 46.7949 17.7016 46.4721 17.6944 46.0705V41.5592C17.6944 41.1647 18.0172 40.842 18.4188 40.842H19.9895V23.4852H18.4188ZM45.5226 22.0507V18.9667H42.4386V22.0507H45.5226ZM42.4386 45.3605H45.5226V42.2764H42.4386V45.3605ZM23.6474 41.5592V43.0653H41.0041V41.5592C41.0041 41.1647 41.3269 40.842 41.7214 40.842H43.2275V23.4852H41.7214C41.3269 23.4852 41.0041 23.1624 41.0041 22.768V21.2618H23.6474V22.768C23.6474 23.1624 23.3246 23.4852 22.9301 23.4852H21.424V40.842H22.9301C23.3246 40.842 23.6474 41.1647 23.6474 41.5592ZM19.1289 42.2764V45.3605H22.2129V42.2764H19.1289ZM22.2129 22.0507V18.9667H19.1289V22.0507H22.2129Z" fill="white"/>
</svg>
