<svg width="63" height="65" viewBox="0 0 63 65" fill="none" xmlns="http://www.w3.org/2000/svg">
<rect x="0.402893" y="0.18457" width="62.5157" height="63.8458" rx="17.2916" fill="#006380"/>
<path d="M22.3498 34.9355C21.9552 34.9355 21.5694 35.0526 21.2413 35.2718C20.9132 35.491 20.6575 35.8026 20.5065 36.1672C20.3555 36.5318 20.316 36.9329 20.393 37.32C20.4699 37.707 20.66 38.0625 20.939 38.3415C21.218 38.6206 21.5735 38.8106 21.9606 38.8876C22.3476 38.9646 22.7488 38.9251 23.1133 38.774C23.4779 38.623 23.7895 38.3673 24.0087 38.0392C24.228 37.7111 24.345 37.3253 24.345 36.9307C24.345 36.4016 24.1348 35.8941 23.7606 35.5199C23.3864 35.1458 22.879 34.9355 22.3498 34.9355ZM22.3498 37.9283C22.1525 37.9283 21.9596 37.8698 21.7956 37.7602C21.6315 37.6506 21.5036 37.4948 21.4281 37.3125C21.3526 37.1302 21.3329 36.9296 21.3714 36.7361C21.4099 36.5426 21.5049 36.3648 21.6444 36.2253C21.7839 36.0858 21.9617 35.9908 22.1552 35.9523C22.3487 35.9138 22.5493 35.9336 22.7316 36.0091C22.9138 36.0846 23.0696 36.2124 23.1793 36.3765C23.2889 36.5406 23.3474 36.7334 23.3474 36.9307C23.3474 37.1953 23.2423 37.4491 23.0552 37.6361C22.8681 37.8232 22.6144 37.9283 22.3498 37.9283Z" fill="white"/>
<path d="M42.3016 34.9355C41.907 34.9355 41.5213 35.0526 41.1932 35.2718C40.8651 35.491 40.6093 35.8026 40.4583 36.1672C40.3073 36.5318 40.2678 36.9329 40.3448 37.32C40.4218 37.707 40.6118 38.0625 40.8908 38.3415C41.1699 38.6206 41.5254 38.8106 41.9124 38.8876C42.2994 38.9646 42.7006 38.9251 43.0652 38.774C43.4297 38.623 43.7413 38.3673 43.9606 38.0392C44.1798 37.7111 44.2968 37.3253 44.2968 36.9307C44.2968 36.4016 44.0866 35.8941 43.7124 35.5199C43.3383 35.1458 42.8308 34.9355 42.3016 34.9355ZM42.3016 37.9283C42.1043 37.9283 41.9115 37.8698 41.7474 37.7602C41.5834 37.6506 41.4555 37.4948 41.38 37.3125C41.3045 37.1302 41.2847 36.9296 41.3232 36.7361C41.3617 36.5426 41.4567 36.3648 41.5962 36.2253C41.7357 36.0858 41.9135 35.9908 42.107 35.9523C42.3005 35.9138 42.5011 35.9336 42.6834 36.0091C42.8657 36.0846 43.0215 36.2124 43.1311 36.3765C43.2407 36.5406 43.2992 36.7334 43.2992 36.9307C43.2992 37.1953 43.1941 37.4491 43.007 37.6361C42.82 37.8232 42.5662 37.9283 42.3016 37.9283Z" fill="white"/>
<path d="M27.8365 37.4287H36.8149V38.4263H27.8365V37.4287Z" fill="white"/>
<path d="M27.8365 35.4346H36.8149V36.4322H27.8365V35.4346Z" fill="white"/>
<path d="M30.8294 27.9521H33.8222V28.9497H30.8294V27.9521Z" fill="white"/>
<path d="M47.2896 32.441V31.4435C47.2884 31.047 47.1304 30.667 46.85 30.3867C46.5697 30.1063 46.1897 29.9483 45.7932 29.9471H43.818L42.7855 26.3258L42.4762 25.0938C42.3951 24.7703 42.2082 24.4832 41.9452 24.278C41.6822 24.0729 41.3583 23.9615 41.0247 23.9615H36.8149V21.9663C36.8141 21.702 36.7088 21.4487 36.5218 21.2618C36.3349 21.0749 36.0816 20.9695 35.8173 20.9688H28.8342C28.5698 20.9695 28.3166 21.0749 28.1296 21.2618C27.9427 21.4487 27.8374 21.702 27.8366 21.9663V23.9615H23.6268C23.2932 23.9615 22.9693 24.0729 22.7063 24.278C22.4433 24.4832 22.2564 24.7703 22.1753 25.0938L21.871 26.3208L20.8335 29.9471H18.8583C18.4618 29.9483 18.0818 30.1063 17.8015 30.3867C17.5211 30.667 17.3631 31.047 17.3619 31.4435V32.441C17.3627 32.6937 17.4276 32.9421 17.5507 33.1628C17.6737 33.3835 17.8507 33.5694 18.0652 33.703C17.6143 34.1663 17.3619 34.7873 17.3619 35.4338V41.4194C17.3626 41.6286 17.4073 41.8354 17.4933 42.0262C17.5792 42.217 17.7044 42.3875 17.8607 42.5267V44.4121C17.8619 44.8086 18.0199 45.1886 18.3003 45.4689C18.5806 45.7493 18.9606 45.9073 19.3571 45.9085H23.3474C23.7439 45.9073 24.1239 45.7493 24.4042 45.4689C24.6846 45.1886 24.8426 44.8086 24.8438 44.4121V42.9158H39.8077V44.4121C39.8089 44.8086 39.9669 45.1886 40.2473 45.4689C40.5276 45.7493 40.9076 45.9073 41.3041 45.9085H45.2944C45.6909 45.9073 46.0709 45.7493 46.3512 45.4689C46.6316 45.1886 46.7896 44.8086 46.7908 44.4121V42.5267C46.9471 42.3875 47.0723 42.217 47.1582 42.0262C47.2442 41.8354 47.2889 41.6286 47.2896 41.4194V35.4338C47.2896 34.7873 47.0372 34.1663 46.5863 33.703C46.8008 33.5694 46.9778 33.3835 47.1008 33.1628C47.2239 32.9421 47.2888 32.6937 47.2896 32.441ZM28.8342 21.9663H35.8173V23.9615H28.8342V21.9663ZM23.1429 25.3382C23.1697 25.2301 23.2318 25.134 23.3195 25.0653C23.4072 24.9966 23.5154 24.9592 23.6268 24.9591H41.0247C41.1361 24.9592 41.2443 24.9966 41.332 25.0653C41.4197 25.134 41.4818 25.2301 41.5086 25.3382L41.6632 25.9567H22.9883L23.1429 25.3382ZM22.7239 26.9543H41.9276L43.6334 32.9398H29.2881C29.1708 32.2428 28.8104 31.6098 28.2707 31.1533C27.731 30.6968 27.0471 30.4463 26.3402 30.4463C25.6333 30.4463 24.9494 30.6968 24.4097 31.1533C23.87 31.6098 23.5096 32.2428 23.3923 32.9398H21.018L22.7239 26.9543ZM28.2656 32.9398H24.4148C24.5238 32.5118 24.7722 32.1323 25.1208 31.8613C25.4695 31.5902 25.8986 31.4431 26.3402 31.4431C26.7818 31.4431 27.2109 31.5902 27.5596 31.8613C27.9082 32.1323 28.1566 32.5118 28.2656 32.9398ZM18.3595 31.4435C18.3595 31.3112 18.412 31.1843 18.5056 31.0908C18.5991 30.9972 18.726 30.9447 18.8583 30.9447H20.5492L19.9806 32.9398H18.8583C18.726 32.9398 18.5991 32.8873 18.5056 32.7937C18.412 32.7002 18.3595 32.5733 18.3595 32.441V31.4435ZM23.8462 44.4121C23.8462 44.5444 23.7937 44.6713 23.7001 44.7648C23.6066 44.8584 23.4797 44.9109 23.3474 44.9109H19.3571C19.2248 44.9109 19.0979 44.8584 19.0044 44.7648C18.9108 44.6713 18.8583 44.5444 18.8583 44.4121V42.9158H23.8462V44.4121ZM45.7932 44.4121C45.7932 44.5444 45.7407 44.6713 45.6471 44.7648C45.5536 44.8584 45.4267 44.9109 45.2944 44.9109H41.3041C41.1718 44.9109 41.0449 44.8584 40.9514 44.7648C40.8578 44.6713 40.8053 44.5444 40.8053 44.4121V42.9158H45.7932V44.4121ZM46.292 41.4194C46.292 41.5517 46.2395 41.6785 46.1459 41.7721C46.0524 41.8656 45.9255 41.9182 45.7932 41.9182H18.8583C18.726 41.9182 18.5991 41.8656 18.5056 41.7721C18.412 41.6785 18.3595 41.5517 18.3595 41.4194V40.9206H46.292V41.4194ZM46.292 39.923H18.3595V35.4338C18.3607 35.0373 18.5187 34.6574 18.7991 34.377C19.0794 34.0967 19.4594 33.9386 19.8559 33.9374H44.7956C45.1921 33.9386 45.5721 34.0967 45.8524 34.377C46.1328 34.6574 46.2908 35.0373 46.292 35.4338V39.923ZM46.292 32.441C46.292 32.5733 46.2395 32.7002 46.1459 32.7937C46.0524 32.8873 45.9255 32.9398 45.7932 32.9398H44.6709L44.1023 30.9447H45.7932C45.9255 30.9447 46.0524 30.9972 46.1459 31.0908C46.2395 31.1843 46.292 31.3112 46.292 31.4435V32.441Z" fill="white"/>
</svg>
