<svg width="63" height="65" viewBox="0 0 63 65" fill="none" xmlns="http://www.w3.org/2000/svg">
<rect x="0.402832" y="0.212891" width="62.5157" height="63.8458" rx="17.2916" fill="#F15A2B"/>
<path d="M44.0553 42.6809C43.4565 42.6931 42.8684 42.5218 42.3698 42.19C41.9988 41.9475 41.5651 41.8184 41.1218 41.8184C40.6786 41.8184 40.2449 41.9475 39.8738 42.19C39.3702 42.5106 38.7856 42.6809 38.1886 42.6809C37.5916 42.6809 37.007 42.5106 36.5034 42.19C36.1323 41.9473 35.6985 41.818 35.2551 41.818C34.8117 41.818 34.378 41.9473 34.0069 42.19C33.5033 42.5106 32.9187 42.6809 32.3217 42.6809C31.7247 42.6809 31.14 42.5106 30.6364 42.19C30.2656 41.9474 29.8322 41.8182 29.3891 41.8182C28.946 41.8182 28.5125 41.9474 28.1417 42.19C27.6851 42.4934 27.1523 42.662 26.6042 42.6766L26.574 41.8138C26.9788 41.8042 27.3719 41.6761 27.7047 41.4454C28.2082 41.1248 28.7927 40.9546 29.3895 40.9546C29.9864 40.9546 30.5708 41.1248 31.0743 41.4454C31.4453 41.688 31.879 41.8171 32.3223 41.8171C32.7656 41.8171 33.1993 41.688 33.5703 41.4454C34.074 41.1245 34.6588 40.9541 35.256 40.9541C35.8532 40.9541 36.438 41.1245 36.9417 41.4454C37.3127 41.688 37.7464 41.8171 38.1897 41.8171C38.633 41.8171 39.0666 41.688 39.4377 41.4454C39.9413 41.1249 40.5259 40.9546 41.1229 40.9546C41.7199 40.9546 42.3045 41.1249 42.8081 41.4454C43.1801 41.6885 43.6148 41.818 44.0592 41.818C44.5035 41.818 44.9383 41.6885 45.3102 41.4454C45.8082 41.1145 46.3953 40.9435 46.9931 40.9553V41.8181C46.548 41.8059 46.1106 41.936 45.7446 42.1895C45.2448 42.5219 44.6553 42.6933 44.0553 42.6809Z" fill="white"/>
<path d="M20.592 42.6804C19.9934 42.6928 19.4053 42.5214 18.907 42.1895C18.5411 41.9358 18.1037 41.8055 17.6586 41.8176V40.9548C18.2574 40.9424 18.8456 41.1137 19.344 41.4458C19.7098 41.6995 20.147 41.8298 20.592 41.8176C21.0372 41.8298 21.4747 41.6994 21.8405 41.4453C22.3379 41.1135 22.9251 40.9423 23.5229 40.9548C24.1062 40.9417 24.6798 41.1052 25.1686 41.4238L24.7334 42.1683C24.3763 41.928 23.9531 41.8054 23.5229 41.8176C23.0795 41.8057 22.6439 41.9356 22.2796 42.1886C21.7807 42.5215 21.1917 42.6932 20.592 42.6804Z" fill="white"/>
<path d="M44.0567 39.6618C43.4575 39.674 42.8689 39.5027 42.3699 39.1708C41.9985 38.9281 41.5645 38.7989 41.1208 38.7989C40.6772 38.7989 40.2431 38.9281 39.8717 39.1708C39.3682 39.4914 38.7837 39.6616 38.1867 39.6616C37.5898 39.6616 37.0053 39.4914 36.5017 39.1708C36.1308 38.9283 35.6973 38.7991 35.2541 38.7991C34.811 38.7991 34.3774 38.9283 34.0066 39.1708C33.503 39.4915 32.9185 39.6618 32.3215 39.6618C31.7246 39.6618 31.1401 39.4915 30.6365 39.1708C30.2656 38.9283 29.8321 38.7991 29.389 38.7991C28.9458 38.7991 28.5123 38.9283 28.1414 39.1708C27.6431 39.5029 27.055 39.6742 26.4564 39.6618C25.8577 39.6742 25.2696 39.5029 24.7713 39.1708C24.4057 38.9171 23.9686 38.7868 23.5238 38.799C23.079 38.7869 22.6421 38.9172 22.2766 39.1708C21.7791 39.5025 21.192 39.6738 20.5942 39.6618C19.9954 39.6742 19.4072 39.5029 18.9087 39.1708C18.5424 38.9166 18.1043 38.7863 17.6586 38.799V37.9362C18.2572 37.9238 18.8453 38.0952 19.3436 38.4271C19.7095 38.6808 20.1469 38.8111 20.592 38.799C21.0367 38.8111 21.4737 38.6808 21.8392 38.4271C22.3367 38.0955 22.9238 37.9242 23.5216 37.9362C24.1207 37.9235 24.7093 38.0948 25.2079 38.4271C25.5737 38.6809 26.0109 38.8112 26.4559 38.799C26.9009 38.8112 27.3382 38.6809 27.7039 38.4271C28.2074 38.1064 28.792 37.9361 29.389 37.9361C29.9859 37.9361 30.5705 38.1064 31.074 38.4271C31.4449 38.6697 31.8785 38.7989 32.3218 38.7989C32.765 38.7989 33.1986 38.6697 33.5696 38.4271C34.0731 38.1064 34.6576 37.9361 35.2546 37.9361C35.8515 37.9361 36.4361 38.1064 36.9396 38.4271C37.3105 38.6697 37.7442 38.7989 38.1874 38.7989C38.6306 38.7989 39.0642 38.6697 39.4352 38.4271C39.9392 38.1066 40.5242 37.9363 41.1215 37.9363C41.7188 37.9363 42.3038 38.1066 42.8078 38.4271C43.1794 38.6696 43.6136 38.7988 44.0573 38.7988C44.5011 38.7988 44.9352 38.6696 45.3068 38.4271C45.8057 38.0954 46.3941 37.9241 46.9932 37.9362V38.799C46.5472 38.7864 46.1088 38.9167 45.7421 39.1708C45.2435 39.5024 44.6554 39.6737 44.0567 39.6618Z" fill="white"/>
<path d="M44.0554 36.6418C43.4566 36.654 42.8685 36.4827 42.3699 36.1508C42.004 35.8971 41.5666 35.7669 41.1215 35.779C40.7948 35.7678 40.4704 35.8374 40.1772 35.9817L39.7967 35.2052C40.2085 35.0034 40.663 34.9038 41.1215 34.9149C41.721 34.9027 42.3098 35.0745 42.8087 35.4071C43.1806 35.6503 43.6153 35.7797 44.0597 35.7797C44.5041 35.7797 44.9388 35.6503 45.3107 35.4071C45.8085 35.076 46.3954 34.9047 46.9932 34.9162V35.779C46.5481 35.7668 46.1107 35.8969 45.7447 36.1504C45.2449 36.4827 44.6554 36.6542 44.0554 36.6418Z" fill="white"/>
<path d="M38.1841 36.6412C37.5864 36.6538 36.9991 36.4826 36.5017 36.1508C36.1307 35.908 35.6969 35.7788 35.2535 35.7788C34.8101 35.7788 34.3763 35.908 34.0053 36.1508C33.5017 36.4714 32.917 36.6417 32.32 36.6417C31.723 36.6417 31.1384 36.4714 30.6348 36.1508C30.2638 35.9082 29.8301 35.779 29.3868 35.779C28.9435 35.779 28.5098 35.9082 28.1388 36.1508C27.6406 36.4822 27.0529 36.6533 26.4546 36.6412C25.856 36.6536 25.2679 36.4823 24.7696 36.1503C24.4037 35.8966 23.9663 35.7663 23.5212 35.7785C23.0778 35.7665 22.6422 35.8965 22.2779 36.1495C21.7795 36.482 21.1911 36.6537 20.592 36.6412C19.9934 36.6536 19.4053 36.4823 18.907 36.1503C18.5411 35.8966 18.1037 35.7663 17.6586 35.7785V34.9157C18.2574 34.9032 18.8456 35.0746 19.344 35.4066C19.7098 35.6604 20.147 35.7907 20.592 35.7785C21.0372 35.7907 21.4747 35.6602 21.8405 35.4062C22.3379 35.0743 22.9251 34.9031 23.5229 34.9157C24.1215 34.9033 24.7096 35.0747 25.2079 35.4066C25.5737 35.6604 26.0109 35.7907 26.4559 35.7785C26.901 35.7906 27.3384 35.6603 27.7044 35.4066C28.208 35.086 28.7926 34.9157 29.3896 34.9157C29.9866 34.9157 30.5712 35.086 31.0748 35.4066C31.4459 35.6492 31.8795 35.7784 32.3228 35.7784C32.7661 35.7784 33.1998 35.6492 33.5709 35.4066C34.0745 35.0858 34.6593 34.9153 35.2565 34.9153C35.8537 34.9153 36.4385 35.0858 36.9422 35.4066C37.3222 35.6622 37.7729 35.7921 38.2307 35.778C38.264 35.7785 38.2973 35.7767 38.3304 35.7729L38.4451 36.6279C38.3585 36.638 38.2713 36.6424 38.1841 36.6412Z" fill="white"/>
<path d="M44.0567 33.6227C43.4575 33.6349 42.8689 33.4636 42.3699 33.1318C41.9985 32.8891 41.5645 32.7598 41.1208 32.7598C40.6772 32.7598 40.2431 32.8891 39.8717 33.1318C39.3682 33.4523 38.7837 33.6226 38.1867 33.6226C37.5898 33.6226 37.0053 33.4523 36.5017 33.1318C36.1308 32.8892 35.6973 32.7601 35.2541 32.7601C34.811 32.7601 34.3774 32.8892 34.0066 33.1318C33.503 33.4524 32.9185 33.6227 32.3215 33.6227C31.7246 33.6227 31.1401 33.4524 30.6365 33.1318C30.2656 32.8892 29.8321 32.7601 29.389 32.7601C28.9458 32.7601 28.5123 32.8892 28.1414 33.1318C27.6431 33.4638 27.055 33.6351 26.4564 33.6227C25.8577 33.6351 25.2696 33.4638 24.7713 33.1318C24.4057 32.8781 23.9686 32.7478 23.5238 32.7599C23.079 32.7478 22.6421 32.8781 22.2766 33.1318C21.7791 33.4634 21.192 33.6347 20.5942 33.6227C19.9954 33.6351 19.4072 33.4638 18.9087 33.1318C18.5424 32.8776 18.1043 32.7473 17.6586 32.7599V31.8971C18.2572 31.8848 18.8453 32.0561 19.3436 32.3881C19.7095 32.6418 20.1469 32.772 20.592 32.7599C21.0367 32.772 21.4737 32.6417 21.8392 32.3881C22.3367 32.0564 22.9238 31.8851 23.5216 31.8971C24.1207 31.8844 24.7093 32.0558 25.2079 32.3881C25.5737 32.6418 26.0109 32.7721 26.4559 32.7599C26.9009 32.7721 27.3382 32.6418 27.7039 32.3881C28.2074 32.0674 28.792 31.897 29.389 31.897C29.9859 31.897 30.5705 32.0674 31.074 32.3881C31.4449 32.6306 31.8785 32.7598 32.3218 32.7598C32.765 32.7598 33.1986 32.6306 33.5696 32.3881C34.0731 32.0674 34.6576 31.897 35.2546 31.897C35.8515 31.897 36.4361 32.0674 36.9396 32.3881C37.3105 32.6306 37.7442 32.7598 38.1874 32.7598C38.6306 32.7598 39.0642 32.6306 39.4352 32.3881C39.9392 32.0675 40.5242 31.8973 41.1215 31.8973C41.7188 31.8973 42.3038 32.0675 42.8078 32.3881C43.1794 32.6306 43.6136 32.7597 44.0573 32.7597C44.5011 32.7597 44.9352 32.6306 45.3068 32.3881C45.8057 32.0563 46.3941 31.885 46.9932 31.8971V32.7599C46.5472 32.7473 46.1088 32.8776 45.7421 33.1318C45.2435 33.4634 44.6554 33.6347 44.0567 33.6227Z" fill="white"/>
<path d="M37.9093 33.2549L37.0953 32.9693C37.305 32.3669 37.3906 31.7284 37.3471 31.0921C37.3036 30.4558 37.1318 29.8348 36.8421 29.2666L33.8788 23.464C33.8496 23.4067 33.8335 23.3436 33.8318 23.2793C33.8301 23.215 33.8428 23.1511 33.869 23.0923C33.8952 23.0335 33.9342 22.9814 33.9831 22.9396C34.0321 22.8979 34.0897 22.8676 34.1519 22.851L40.0572 21.2764C40.2497 21.2261 40.4144 21.1018 40.5157 20.9306C40.617 20.7594 40.6466 20.5552 40.598 20.3623C40.5494 20.1694 40.4267 20.0035 40.2564 19.9006C40.0861 19.7978 39.8821 19.7664 39.6888 19.8132L32.5415 21.5215C32.3887 21.5576 32.2463 21.6284 32.1253 21.7284C32.0042 21.8284 31.9079 21.9549 31.8436 22.0981C31.7793 22.2413 31.7489 22.3975 31.7546 22.5544C31.7604 22.7112 31.8022 22.8647 31.8768 23.0029L33.9992 26.9458C34.053 27.046 34.0651 27.1634 34.0328 27.2725C34.0005 27.3815 33.9264 27.4734 33.8266 27.5281L31.0873 29.038L30.671 28.2822L33.0359 26.9785L31.1179 23.4118C30.9807 23.1572 30.9039 22.8744 30.8935 22.5854C30.883 22.2963 30.9391 22.0088 31.0576 21.7449C31.176 21.481 31.3535 21.2479 31.5764 21.0636C31.7993 20.8793 32.0617 20.7487 32.3431 20.682L39.4869 18.9741C39.9028 18.869 40.3434 18.9334 40.7118 19.1532C41.0802 19.373 41.3462 19.7301 41.4513 20.146C41.5564 20.5619 41.4919 21.0025 41.2722 21.3708C41.0524 21.7392 40.6953 22.0052 40.2794 22.1103L34.8896 23.5468L37.6108 28.8736C37.9535 29.546 38.1565 30.2808 38.2079 31.0337C38.2592 31.7867 38.1576 32.5422 37.9093 33.2549Z" fill="white"/>
<path d="M29.1631 29.1211L23.9207 32.0098L24.3369 32.765L29.5792 29.8764L29.1631 29.1211Z" fill="white"/>
<path d="M41.8164 30.3869C41.1765 30.3869 40.551 30.1971 40.0189 29.8416C39.4869 29.4861 39.0722 28.9808 38.8273 28.3896C38.5824 27.7984 38.5183 27.1479 38.6432 26.5202C38.768 25.8926 39.0761 25.3161 39.5286 24.8637C39.9811 24.4112 40.5576 24.103 41.1852 23.9782C41.8128 23.8533 42.4634 23.9174 43.0546 24.1623C43.6458 24.4072 44.1511 24.8219 44.5066 25.3539C44.8621 25.886 45.0519 26.5115 45.0519 27.1514C45.0509 28.0093 44.7098 28.8317 44.1032 29.4382C43.4966 30.0448 42.6742 30.386 41.8164 30.3869ZM41.8164 24.7788C41.3472 24.7788 40.8884 24.918 40.4983 25.1787C40.1081 25.4394 39.804 25.8099 39.6244 26.2435C39.4448 26.677 39.3978 27.1541 39.4894 27.6143C39.5809 28.0746 39.8069 28.4973 40.1387 28.8292C40.4705 29.161 40.8933 29.387 41.3535 29.4785C41.8138 29.5701 42.2909 29.5231 42.7244 29.3435C43.1579 29.1639 43.5285 28.8598 43.7892 28.4696C44.0499 28.0794 44.1891 27.6207 44.1891 27.1514C44.1883 26.5224 43.938 25.9194 43.4933 25.4746C43.0485 25.0298 42.4454 24.7796 41.8164 24.7788Z" fill="white"/>
</svg>
